<?xml version="1.0" encoding="UTF-8" standalone="no"?>
<svg
   width="38.380829mm"
   height="50.642342mm"
   viewBox="0 0 38.380829 50.642342"
   version="1.1"
   id="svg4086"
   inkscape:version="1.1.2 (0a00cf5339, 2022-02-04)"
   sodipodi:docname="newAppLogo.svg"
   xmlns:inkscape="http://www.inkscape.org/namespaces/inkscape"
   xmlns:sodipodi="http://sodipodi.sourceforge.net/DTD/sodipodi-0.dtd"
   xmlns="http://www.w3.org/2000/svg"
   xmlns:svg="http://www.w3.org/2000/svg"
   xmlns:rdf="http://www.w3.org/1999/02/22-rdf-syntax-ns#"
   xmlns:cc="http://creativecommons.org/ns#"
   xmlns:dc="http://purl.org/dc/elements/1.1/">
  <defs
     id="defs4080">
    <clipPath
       clipPathUnits="userSpaceOnUse"
       id="clipPath34">
      <path
         d="M 0,500 H 500 V 0 H 0 Z"
         id="path32"
         inkscape:connector-curvature="0" />
    </clipPath>
  </defs>
  <sodipodi:namedview
     id="base"
     pagecolor="#ffffff"
     bordercolor="#666666"
     borderopacity="1.0"
     inkscape:pageopacity="0.0"
     inkscape:pageshadow="2"
     inkscape:zoom="1.979899"
     inkscape:cx="156.32111"
     inkscape:cy="77.781745"
     inkscape:document-units="mm"
     inkscape:current-layer="layer1"
     showgrid="false"
     fit-margin-top="0"
     fit-margin-left="0"
     fit-margin-right="0"
     fit-margin-bottom="0"
     inkscape:window-width="3440"
     inkscape:window-height="1365"
     inkscape:window-x="0"
     inkscape:window-y="0"
     inkscape:window-maximized="1"
     inkscape:pagecheckerboard="0" />
  <metadata
     id="metadata4083">
    <rdf:RDF>
      <cc:Work
         rdf:about="">
        <dc:format>image/svg+xml</dc:format>
        <dc:type
           rdf:resource="http://purl.org/dc/dcmitype/StillImage" />
      </cc:Work>
    </rdf:RDF>
  </metadata>
  <g
     inkscape:label="Layer 1"
     inkscape:groupmode="layer"
     id="layer1"
     transform="translate(-22.707603,-9.192276)">
    <text
       y="50.265423"
       x="27.754038"
       transform="scale(0.9781253,1.0223639)"
       style="font-style:italic;font-variant:normal;font-weight:bold;font-stretch:normal;font-size:8.3237px;font-family:Montserrat;-inkscape-font-specification:Montserrat-BoldItalic;writing-mode:lr-tb;fill:#1ba2db;fill-opacity:1;fill-rule:nonzero;stroke:none;stroke-width:0.345061"
       id="text22"
       inkscape:export-xdpi="96"
       inkscape:export-ydpi="96"><tspan
         style="font-style:italic;font-variant:normal;font-weight:bold;font-stretch:normal;font-family:Verdana;-inkscape-font-specification:'Verdana Bold Italic';stroke-width:0.345061"
         x="27.754038"
         y="50.265423"
         sodipodi:role="line"
         id="tspan20">BuyTech</tspan></text>
    <g
       transform="matrix(0.35277777,0,0,-0.35277777,-2.5727848,168.06451)"
       id="g28"
       inkscape:export-xdpi="96"
       inkscape:export-ydpi="96">
      <g
         id="g30"
         clip-path="url(#clipPath34)">
        <g
           id="g36"
           transform="translate(176.1572,378.7329)">
          <path
             d="m 0,0 c 0,-1.892 -1.533,-3.425 -3.425,-3.425 -1.892,0 -3.425,1.533 -3.425,3.425 0,1.892 1.533,3.425 3.425,3.425 C -1.533,3.425 0,1.892 0,0"
             style="fill:#95cd2c;fill-opacity:1;fill-rule:nonzero;stroke:none"
             id="path38"
             inkscape:connector-curvature="0" />
        </g>
        <g
           id="g40"
           transform="translate(147.5479,422.9385)">
          <path
             d="m 0,0 h -4.055 v 8.347 c 0,8.274 -6.732,15.006 -15.006,15.006 -8.274,0 -15.006,-6.732 -15.006,-15.006 V 0 h -4.055 v 8.347 c 0,10.51 8.551,19.061 19.061,19.061 C -8.551,27.408 0,18.857 0,8.347 Z"
             style="fill:#95cd2c;fill-opacity:1;fill-rule:nonzero;stroke:none"
             id="path42"
             inkscape:connector-curvature="0" />
        </g>
        <g
           id="g44"
           transform="translate(154.4951,387.1982)">
          <path
             d="M 0,0 C -0.194,-0.206 -0.397,-0.405 -0.595,-0.608 -0.396,-0.405 -0.196,-0.207 0,0"
             style="fill:#95cd2c;fill-opacity:1;fill-rule:nonzero;stroke:none"
             id="path46"
             inkscape:connector-curvature="0" />
        </g>
        <g
           id="g48"
           transform="translate(151.6421,384.3809)">
          <path
             d="M 0,0 C -0.48,-0.445 -0.966,-0.884 -1.457,-1.315 -0.973,-0.89 -0.486,-0.451 0,0"
             style="fill:#95cd2c;fill-opacity:1;fill-rule:nonzero;stroke:none"
             id="path50"
             inkscape:connector-curvature="0" />
        </g>
        <g
           id="g52"
           transform="translate(155.8569,388.6948)">
          <path
             d="M 0,0 C -0.168,-0.192 -0.345,-0.378 -0.516,-0.568 -0.344,-0.377 -0.168,-0.193 0,0"
             style="fill:#95cd2c;fill-opacity:1;fill-rule:nonzero;stroke:none"
             id="path54"
             inkscape:connector-curvature="0" />
        </g>
        <g
           id="g56"
           transform="translate(153.083,385.7578)">
          <path
             d="M 0,0 C -0.231,-0.228 -0.468,-0.448 -0.703,-0.672 -0.468,-0.448 -0.233,-0.229 0,0"
             style="fill:#95cd2c;fill-opacity:1;fill-rule:nonzero;stroke:none"
             id="path58"
             inkscape:connector-curvature="0" />
        </g>
        <g
           id="g60"
           transform="translate(155.3413,388.127)">
          <path
             d="M 0,0 C -0.281,-0.312 -0.559,-0.625 -0.846,-0.929 -0.558,-0.624 -0.28,-0.311 0,0"
             style="fill:#95cd2c;fill-opacity:1;fill-rule:nonzero;stroke:none"
             id="path62"
             inkscape:connector-curvature="0" />
        </g>
        <g
           id="g64"
           transform="translate(152.3804,385.0854)">
          <path
             d="M 0,0 C -0.246,-0.235 -0.492,-0.476 -0.738,-0.705 -0.489,-0.473 -0.246,-0.235 0,0"
             style="fill:#95cd2c;fill-opacity:1;fill-rule:nonzero;stroke:none"
             id="path66"
             inkscape:connector-curvature="0" />
        </g>
        <g
           id="g68"
           transform="translate(155.8569,388.6948)">
          <path
             d="m 0,0 c 1.75,2.004 3.319,4.136 4.6,6.412 0.921,1.669 1.685,3.429 2.15,5.28 L 6.726,11.998 C 5.721,7.63 3.111,3.563 0,0"
             style="fill:#95cd2c;fill-opacity:1;fill-rule:nonzero;stroke:none"
             id="path70"
             inkscape:connector-curvature="0" />
        </g>
        <g
           id="g72"
           transform="translate(153.9004,386.5903)">
          <path
             d="M 0,0 C -0.272,-0.279 -0.542,-0.562 -0.817,-0.833 -0.541,-0.56 -0.271,-0.278 0,0"
             style="fill:#95cd2c;fill-opacity:1;fill-rule:nonzero;stroke:none"
             id="path74"
             inkscape:connector-curvature="0" />
        </g>
        <g
           id="g76"
           transform="translate(145.5205,414.8457)">
          <path
             d="m 0,0 c -1.407,0 -2.547,1.141 -2.547,2.547 0,1.407 1.14,2.547 2.547,2.547 1.407,0 2.547,-1.14 2.547,-2.547 C 2.547,1.141 1.407,0 0,0 m -33.54,0 c -1.406,0 -2.546,1.141 -2.546,2.547 0,1.407 1.14,2.547 2.546,2.547 1.407,0 2.547,-1.14 2.547,-2.547 C -30.993,1.141 -32.133,0 -33.54,0 M 16.287,-4.239 15.74,2.736 c -0.291,3.726 -3.399,6.6 -7.136,6.6 h -50.819 c -3.72,0 -6.819,-2.84 -7.132,-6.547 -1.315,-15.568 -4.52,-53.507 -4.52,-53.508 0,0 6.094,-1.269 21.164,1.133 10.111,1.61 19.762,5.812 28.474,11.153 0.106,0.065 0.213,0.131 0.319,0.197 8.107,5.013 16.053,11.504 19.812,20.523 0.358,0.858 0.668,1.735 0.921,2.63 0.015,0.052 0.029,0.104 0.044,0.155 0.07,0.257 0.135,0.515 0.195,0.775 z"
             style="fill:#95cd2c;fill-opacity:1;fill-rule:nonzero;stroke:none"
             id="path78"
             inkscape:connector-curvature="0" />
        </g>
        <g
           id="g80"
           transform="translate(91.2671,361.7388)">
          <path
             d="m 0,0 -0.275,-2.248 c -0.522,-4.266 2.807,-8.026 7.105,-8.026 h 60.714 c 4.165,0 7.451,3.542 7.138,7.695 l -1.971,26.16 C 72.757,22.97 69.584,18.129 66.822,15.431 52.929,1.857 33.365,-1.253 14.151,-1.216 5.346,-1.199 0,0 0,0"
             style="fill:#09a7cb;fill-opacity:1;fill-rule:nonzero;stroke:none"
             id="path82"
             inkscape:connector-curvature="0" />
        </g>
        <g
           id="g84"
           transform="translate(180.457,399.1841)">
          <path
             d="m 0,0 c 0,-3.491 -2.83,-6.322 -6.322,-6.322 -3.491,0 -6.322,2.831 -6.322,6.322 0,3.492 2.831,6.322 6.322,6.322 C -2.83,6.322 0,3.492 0,0"
             style="fill:#09a7cb;fill-opacity:1;fill-rule:nonzero;stroke:none"
             id="path86"
             inkscape:connector-curvature="0" />
        </g>
        <g
           id="g88"
           transform="translate(169.5527,388.6948)">
          <path
             d="m 0,0 c 0,-0.96 -0.779,-1.739 -1.739,-1.739 -0.961,0 -1.74,0.779 -1.74,1.739 0,0.96 0.779,1.739 1.74,1.739 C -0.779,1.739 0,0.96 0,0"
             style="fill:#95cd2c;fill-opacity:1;fill-rule:nonzero;stroke:none"
             id="path90"
             inkscape:connector-curvature="0" />
        </g>
        <g
           id="g92"
           transform="translate(89.8765,370.4497)">
          <path
             d="m 0,0 c 0,-0.961 -0.779,-1.739 -1.739,-1.739 -0.961,0 -1.739,0.778 -1.739,1.739 0,0.96 0.778,1.739 1.739,1.739 C -0.779,1.739 0,0.96 0,0"
             style="fill:#95cd2c;fill-opacity:1;fill-rule:nonzero;stroke:none"
             id="path94"
             inkscape:connector-curvature="0" />
        </g>
        <g
           id="g96"
           transform="translate(86.3984,363.7915)">
          <path
             d="m 0,0 c 0,-2.716 -2.202,-4.918 -4.919,-4.918 -2.716,0 -4.918,2.202 -4.918,4.918 0,2.717 2.202,4.919 4.918,4.919 C -2.202,4.919 0,2.717 0,0"
             style="fill:#09a7cb;fill-opacity:1;fill-rule:nonzero;stroke:none"
             id="path98"
             inkscape:connector-curvature="0" />
        </g>
      </g>
    </g>
    <text
       xml:space="preserve"
       style="font-style:italic;font-variant:normal;font-weight:normal;font-stretch:normal;font-size:9.9263px;line-height:1.25;font-family:sans-serif;-inkscape-font-specification:'sans-serif Italic';letter-spacing:0px;word-spacing:0px;fill:#000000;fill-opacity:1;stroke:none;stroke-width:0.265883"
       x="27.166664"
       y="58.47575"
       id="text3931"
       inkscape:export-xdpi="96"
       inkscape:export-ydpi="96"
       transform="scale(1.0049121,0.99511191)"><tspan
         sodipodi:role="line"
         id="tspan3929"
         x="27.166664"
         y="58.47575"
         style="font-style:italic;font-variant:normal;font-weight:bold;font-stretch:normal;font-size:5.67217px;font-family:sans-serif;-inkscape-font-specification:'sans-serif Italic';fill:#666666;stroke-width:0.265883">OnlineShop</tspan></text>
  </g>
</svg>
