<?xml version="1.0" encoding="UTF-8" standalone="no"?>
<svg
   width="2000.4"
   height="2000.16"
   viewBox="0 0 2000.4 2000.16"
   version="1.1"
   id="svg43"
   sodipodi:docname="temp.svg"
   inkscape:version="1.1.2 (0a00cf5339, 2022-02-04)"
   xmlns:inkscape="http://www.inkscape.org/namespaces/inkscape"
   xmlns:sodipodi="http://sodipodi.sourceforge.net/DTD/sodipodi-0.dtd"
   xmlns="http://www.w3.org/2000/svg"
   xmlns:svg="http://www.w3.org/2000/svg">
  <sodipodi:namedview
     id="namedview45"
     pagecolor="#ffffff"
     bordercolor="#666666"
     borderopacity="1.0"
     inkscape:pageshadow="2"
     inkscape:pageopacity="0.0"
     inkscape:pagecheckerboard="0"
     showgrid="false"
     inkscape:zoom="0.32197424"
     inkscape:cx="1001.6329"
     inkscape:cy="1000.08"
     inkscape:window-width="3440"
     inkscape:window-height="1373"
     inkscape:window-x="0"
     inkscape:window-y="0"
     inkscape:window-maximized="1"
     inkscape:current-layer="svg43" />
  <defs
     id="defs5">
    <clipPath
       id="clip-0">
      <path
         clip-rule="nonzero"
         d="M 0.171875 0.03125 L 2000.171875 0.03125 L 2000.171875 2000.03125 L 0.171875 2000.03125 Z M 0.171875 0.03125 "
         id="path2" />
    </clipPath>
  </defs>
  <path
     fill-rule="evenodd"
     fill="#070400"
     fill-opacity="1"
     d="m 732.72393,1450.6881 c 82.91521,55.034 136.4243,141.8078 136.4243,239.3512 0,166.1817 -155.35273,301.097 -346.70071,301.097 -191.34798,0 -346.69459,-134.9153 -346.69459,-301.097 0,-97.5434 53.50909,-184.3172 136.41818,-239.3512 V 211.97566 c 0,-100.86204 94.14,-182.620659 210.27641,-182.620659 116.13642,0 210.27641,81.758619 210.27641,182.620659 z m -78.38365,17.4601 V 211.97566 c 0,-63.25617 -59.05107,-114.546095 -131.89276,-114.546095 -72.84169,0 -131.89275,51.289925 -131.89275,114.546095 V 1468.1482 c 0,11.3439 -6.50951,21.938 -17.3485,28.2615 -71.77617,41.8446 -119.06968,112.9772 -119.06968,193.6296 0,128.6077 120.22706,233.0224 268.31093,233.0224 148.08388,0 268.31705,-104.4147 268.31705,-233.0224 0,-80.6524 -47.29963,-151.785 -119.07579,-193.6296 -10.83899,-6.3235 -17.3485,-16.9176 -17.3485,-28.2615"
     id="path11"
     style="stroke-width:1.46095" />
  <path
     fill-rule="evenodd"
     fill="#070400"
     fill-opacity="1"
     d="m 1760.1316,1450.6881 c 82.9153,55.034 136.4243,141.8078 136.4243,239.3512 0,166.1817 -155.3589,301.097 -346.6947,301.097 -191.3479,0 -346.7067,-134.9153 -346.7067,-301.097 0,-97.5434 53.5213,-184.3172 136.4181,-239.3512 V 211.97566 c 0,-100.86204 94.1585,-182.620659 210.2886,-182.620659 116.1365,0 210.2704,81.758619 210.2704,182.620659 z m -78.3837,17.4601 V 211.97566 c 0,-63.25617 -59.051,-114.546095 -131.8867,-114.546095 -72.8478,0 -131.9049,51.289925 -131.9049,114.546095 V 1468.1482 c 0,11.3439 -6.5034,21.938 -17.3362,28.2615 -71.7823,41.8446 -119.082,112.9772 -119.082,193.6296 0,128.6077 120.227,233.0224 268.3231,233.0224 148.084,0 268.311,-104.4147 268.311,-233.0224 0,-80.6524 -47.2996,-151.785 -119.0696,-193.6296 -10.8452,-6.3235 -17.3547,-16.9176 -17.3547,-28.2615"
     id="path13"
     style="stroke-width:1.46095" />
  <path
     fill-rule="evenodd"
     fill="#ff2f00"
     fill-opacity="1"
     d="m 578.41835,1549.5983 c 66.97516,20.1564 115.11375,75.4511 115.11375,140.441 0,82.0032 -76.65677,148.5834 -171.08458,148.5834 -94.42169,0 -171.08458,-66.5802 -171.08458,-148.5834 0,-64.9899 48.13859,-120.2846 115.11375,-140.441 V 379.98156 c 0,-12.881 5.89715,-25.24078 16.39321,-34.3617 10.49606,-9.12094 24.73372,-14.24248 39.57762,-14.24248 14.84391,0 29.08156,5.12154 39.57762,14.24248 10.49606,9.12092 16.39321,21.4807 16.39321,34.3617 V 1549.5983"
     id="path15"
     style="stroke-width:1.46095" />
  <path
     fill-rule="evenodd"
     fill="#0082ff"
     fill-opacity="1"
     d="m 1605.826,1549.5983 c 66.9752,20.1564 115.1137,75.4511 115.1137,140.441 0,82.0032 -76.6568,148.5834 -171.0785,148.5834 -94.4338,0 -171.0967,-66.5802 -171.0967,-148.5834 0,-64.9899 48.1447,-120.2846 115.1321,-140.441 V 379.98156 c 0,-12.881 5.8971,-25.24078 16.381,-34.3617 10.5022,-9.12094 24.7398,-14.24248 39.5836,-14.24248 14.844,0 29.0816,5.12154 39.5716,14.24248 10.5021,9.12092 16.3932,21.4807 16.3932,34.3617 V 1549.5983"
     id="path17"
     style="stroke-width:1.46095" />
  <path
     fill-rule="evenodd"
     fill="#000000"
     fill-opacity="1"
     d="m 351.36294,473.55749 c -21.62899,0 -39.19183,-15.24764 -39.19183,-34.03728 0,-18.78965 17.56284,-34.03729 39.19183,-34.03729 h 64.88086 c 21.62898,0 39.19182,15.24764 39.19182,34.03729 0,18.78964 -17.56284,34.03728 -39.19182,34.03728 h -64.88086"
     id="path19"
     style="stroke-width:1.46095" />
  <path
     fill-rule="evenodd"
     fill="#000000"
     fill-opacity="1"
     d="m 1378.7645,473.55749 c -21.6168,0 -39.1919,-15.24764 -39.1919,-34.03728 0,-18.78965 17.5751,-34.03729 39.1919,-34.03729 h 64.8869 c 21.6352,0 39.1919,15.24764 39.1919,34.03729 0,18.78964 -17.5567,34.03728 -39.1919,34.03728 h -64.8869"
     id="path21"
     style="stroke-width:1.46095" />
  <path
     fill-rule="evenodd"
     fill="#000000"
     fill-opacity="1"
     d="m 351.36294,798.87412 c -21.62899,0 -39.19183,-15.25295 -39.19183,-34.03727 0,-18.77902 17.56284,-34.03729 39.19183,-34.03729 h 64.88086 c 21.62898,0 39.19182,15.25827 39.19182,34.03729 0,18.78432 -17.56284,34.03727 -39.19182,34.03727 h -64.88086"
     id="path23"
     style="stroke-width:1.46095" />
  <path
     fill-rule="evenodd"
     fill="#000000"
     fill-opacity="1"
     d="m 1378.7645,798.87412 c -21.6168,0 -39.1919,-15.25295 -39.1919,-34.03727 0,-18.77902 17.5751,-34.03729 39.1919,-34.03729 h 64.8869 c 21.6352,0 39.1919,15.25827 39.1919,34.03729 0,18.78432 -17.5567,34.03727 -39.1919,34.03727 h -64.8869"
     id="path25"
     style="stroke-width:1.46095" />
  <path
     fill-rule="evenodd"
     fill="#000000"
     fill-opacity="1"
     d="m 351.36294,1124.2067 c -21.62899,0 -39.19183,-15.2529 -39.19183,-34.0373 0,-18.7896 17.56284,-34.0372 39.19183,-34.0372 h 64.88086 c 21.62898,0 39.19182,15.2476 39.19182,34.0372 0,18.7844 -17.56284,34.0373 -39.19182,34.0373 h -64.88086"
     id="path27"
     style="stroke-width:1.46095" />
  <path
     fill-rule="evenodd"
     fill="#000000"
     fill-opacity="1"
     d="m 1378.7645,1124.2067 c -21.6168,0 -39.1919,-15.2529 -39.1919,-34.0373 0,-18.7896 17.5751,-34.0372 39.1919,-34.0372 h 64.8869 c 21.6352,0 39.1919,15.2476 39.1919,34.0372 0,18.7844 -17.5567,34.0373 -39.1919,34.0373 h -64.8869"
     id="path29"
     style="stroke-width:1.46095" />
  <path
     fill-rule="evenodd"
     fill="#000000"
     fill-opacity="1"
     d="m 351.36294,636.21314 c -21.62899,0 -39.19183,-15.24764 -39.19183,-34.03728 0,-18.78432 17.56284,-34.03727 39.19183,-34.03727 h 64.88086 c 21.62898,0 39.19182,15.25295 39.19182,34.03727 0,18.78964 -17.56284,34.03728 -39.19182,34.03728 h -64.88086"
     id="path31"
     style="stroke-width:1.46095" />
  <path
     fill-rule="evenodd"
     fill="#000000"
     fill-opacity="1"
     d="m 1378.7645,636.21314 c -21.6168,0 -39.1919,-15.24764 -39.1919,-34.03728 0,-18.78432 17.5751,-34.03727 39.1919,-34.03727 h 64.8869 c 21.6352,0 39.1919,15.25295 39.1919,34.03727 0,18.78964 -17.5567,34.03728 -39.1919,34.03728 h -64.8869"
     id="path33"
     style="stroke-width:1.46095" />
  <path
     fill-rule="evenodd"
     fill="#000000"
     fill-opacity="1"
     d="m 351.36294,961.54574 c -21.62899,0 -39.19183,-15.25296 -39.19183,-34.03728 0,-18.78964 17.56284,-34.03728 39.19183,-34.03728 h 64.88086 c 21.62898,0 39.19182,15.24764 39.19182,34.03728 0,18.78432 -17.56284,34.03728 -39.19182,34.03728 h -64.88086"
     id="path35"
     style="stroke-width:1.46095" />
  <path
     fill-rule="evenodd"
     fill="#000000"
     fill-opacity="1"
     d="m 1378.7645,961.54574 c -21.6168,0 -39.1919,-15.25296 -39.1919,-34.03728 0,-18.78964 17.5751,-34.03728 39.1919,-34.03728 h 64.8869 c 21.6352,0 39.1919,15.24764 39.1919,34.03728 0,18.78432 -17.5567,34.03728 -39.1919,34.03728 h -64.8869"
     id="path37"
     style="stroke-width:1.46095" />
  <path
     fill-rule="evenodd"
     fill="#000000"
     fill-opacity="1"
     d="m 351.36294,1286.8677 c -21.62899,0 -39.19183,-15.253 -39.19183,-34.0373 0,-18.7843 17.56284,-34.0372 39.19183,-34.0372 h 64.88086 c 21.62898,0 39.19182,15.2529 39.19182,34.0372 0,18.7843 -17.56284,34.0373 -39.19182,34.0373 h -64.88086"
     id="path39"
     style="stroke-width:1.46095" />
  <path
     fill-rule="evenodd"
     fill="#000000"
     fill-opacity="1"
     d="m 1378.7645,1286.8677 c -21.6168,0 -39.1919,-15.253 -39.1919,-34.0373 0,-18.7843 17.5751,-34.0372 39.1919,-34.0372 h 64.8869 c 21.6352,0 39.1919,15.2529 39.1919,34.0372 0,18.7843 -17.5567,34.0373 -39.1919,34.0373 h -64.8869"
     id="path41"
     style="stroke-width:1.46095" />
</svg>
